<?xml version="1.0" standalone="no"?>
<!DOCTYPE svg PUBLIC "-//W3C//DTD SVG 20010904//EN"
 "http://www.w3.org/TR/2001/REC-SVG-20010904/DTD/svg10.dtd">
<svg version="1.0" xmlns="http://www.w3.org/2000/svg"
 width="168.000000pt" height="168.000000pt" viewBox="0 0 168.000000 168.000000"
 preserveAspectRatio="xMidYMid meet">
<metadata>
Created by potrace 1.11, written by Peter Selinger 2001-2013
</metadata>
<g transform="translate(0.000000,168.000000) scale(0.100000,-0.100000)"
fill="#000000" stroke="none">
<path d="M715 1534 c-156 -32 -275 -88 -358 -169 -69 -68 -101 -121 -123 -205
-26 -101 -10 -193 51 -294 19 -32 32 -63 28 -70 -3 -6 -2 -8 2 -3 10 8 45 -21
45 -37 -1 -6 -8 -2 -18 10 -18 21 -47 22 -36 1 3 -7 -6 2 -21 18 l-27 30 16
-32 c36 -72 171 -200 256 -243 196 -98 471 -97 650 3 149 83 266 224 284 342
l6 40 -13 -40 c-27 -79 -68 -145 -91 -145 -6 0 -5 4 3 9 7 5 12 14 10 20 -2 6
-23 -7 -47 -30 -61 -60 -52 -37 15 34 108 117 147 259 108 393 -64 223 -321
376 -625 373 -52 -1 -104 -3 -115 -5z m-145 -177 c18 -11 30 -48 30 -93 0 -22
-4 -24 -45 -24 l-45 0 0 45 c0 25 -4 45 -10 45 -6 0 -10 -43 -10 -110 0 -67 4
-110 10 -110 6 0 10 19 10 43 l0 42 46 0 46 0 -6 -39 c-10 -57 -22 -74 -64
-87 -31 -9 -45 -8 -75 5 -48 19 -57 45 -57 155 0 123 28 157 119 144 18 -2 42
-9 51 -16z m131 -106 l-3 -121 26 0 c22 0 26 -4 26 -30 l0 -30 -65 0 -65 0 0
153 0 152 42 -1 43 -1 -4 -122z m149 -28 l0 -153 -40 0 -40 0 0 153 0 152 40
0 40 0 0 -152z m169 146 c36 -13 51 -41 51 -95 0 -35 0 -35 -42 -32 -43 3 -43
3 -46 46 -2 23 -7 42 -13 42 -5 0 -9 -48 -9 -110 0 -67 4 -110 10 -110 9 0 15
36 11 68 -1 8 13 12 44 12 44 0 45 -1 45 -33 0 -44 -23 -74 -65 -86 -44 -12
-101 3 -115 29 -6 12 -9 68 -8 132 l3 113 35 17 c41 21 56 22 99 7z m246 -59
l-24 -69 25 -78 c13 -43 24 -82 24 -86 0 -5 -19 -7 -42 -5 -41 3 -43 4 -54 48
l-12 45 -1 -48 -1 -48 -42 3 -43 3 -3 148 -3 147 46 0 45 0 1 -42 1 -43 12 40
c10 36 15 41 51 46 22 3 41 7 42 8 1 0 -9 -30 -22 -69z m-501 -312 c3 -13 6
-36 6 -53 0 -43 18 -18 22 30 l3 40 53 3 52 3 0 -150 0 -151 -35 0 -35 0 -1
73 -2 72 -9 -72 c-10 -71 -11 -73 -38 -73 -26 0 -28 3 -37 63 l-10 62 -2 -62
-1 -63 -40 0 -40 0 0 150 0 150 54 0 c47 0 54 -3 60 -22z m306 -8 c0 -25 -4
-30 -25 -30 -21 0 -25 -5 -25 -30 0 -23 5 -30 19 -30 11 0 22 -4 25 -8 10 -16
-7 -52 -24 -52 -13 0 -19 -10 -22 -36 -4 -34 -3 -36 24 -32 25 4 28 2 28 -24
l0 -28 -70 0 -70 0 0 150 0 150 70 0 70 0 0 -30z"/>
<path d="M106 680 c10 -54 79 -180 127 -230 99 -105 232 -182 383 -220 130
-34 334 -39 334 -10 0 6 -7 10 -15 10 -8 0 -15 4 -15 9 0 5 -13 12 -30 16 -16
4 -32 11 -35 16 -4 5 -23 9 -45 9 -47 0 -174 25 -260 52 -110 34 -219 97 -289
165 -36 34 -67 60 -69 58 -5 -4 -24 28 -72 120 l-21 40 7 -35z"/>
<path d="M169 412 c32 -63 159 -184 248 -237 290 -170 694 -145 942 58 55 45
142 137 129 137 -2 0 -24 -18 -48 -41 -120 -110 -289 -189 -403 -189 -24 0
-59 -5 -77 -11 -21 -8 -34 -8 -39 -2 -3 6 -48 10 -108 9 -55 0 -99 3 -96 7 2
4 -13 8 -34 8 -96 0 -103 1 -97 11 5 8 -3 9 -25 5 -20 -4 -30 -3 -26 3 3 5 0
7 -8 4 -20 -7 -139 54 -214 110 -34 26 -81 70 -104 99 -61 75 -63 76 -40 29z"/>
</g>
</svg>
